<svg width="28" height="28" viewBox="0 0 28 28" fill="none" xmlns="http://www.w3.org/2000/svg">
    <g filter="url(#filter0_ii_889_4977)">
        <circle cx="14" cy="14" r="12" fill="#FFBD2F"/>
    </g>
    <path d="M16.2188 12.8906C16.1172 11.8281 15.4062 11.125 14.2031 11.125C12.6328 11.125 11.75 12.3203 11.75 14.3438C11.75 16.4688 12.6562 17.5547 14.1875 17.5625C15.3359 17.5547 16.0547 16.9453 16.2188 15.9375L19.2344 15.9688C19.0703 17.9062 17.3828 20.1562 14.125 20.1562C11.0234 20.1562 8.69531 18.0938 8.6875 14.3438C8.69531 10.5781 11.0859 8.53125 14.125 8.53125C16.9453 8.53125 18.9844 10.1094 19.2344 12.8906H16.2188Z" fill="white"/>
    <defs>
        <filter id="filter0_ii_889_4977" x="1" y="1" width="26" height="26" filterUnits="userSpaceOnUse" color-interpolation-filters="sRGB">
            <feFlood flood-opacity="0" result="BackgroundImageFix"/>
            <feBlend mode="normal" in="SourceGraphic" in2="BackgroundImageFix" result="shape"/>
            <feColorMatrix in="SourceAlpha" type="matrix" values="0 0 0 0 0 0 0 0 0 0 0 0 0 0 0 0 0 0 127 0" result="hardAlpha"/>
            <feOffset dx="1" dy="1"/>
            <feGaussianBlur stdDeviation="1"/>
            <feComposite in2="hardAlpha" operator="arithmetic" k2="-1" k3="1"/>
            <feColorMatrix type="matrix" values="0 0 0 0 0 0 0 0 0 0 0 0 0 0 0 0 0 0 0.29 0"/>
            <feBlend mode="normal" in2="shape" result="effect1_innerShadow_889_4977"/>
            <feColorMatrix in="SourceAlpha" type="matrix" values="0 0 0 0 0 0 0 0 0 0 0 0 0 0 0 0 0 0 127 0" result="hardAlpha"/>
            <feOffset dx="-1" dy="-1"/>
            <feGaussianBlur stdDeviation="1"/>
            <feComposite in2="hardAlpha" operator="arithmetic" k2="-1" k3="1"/>
            <feColorMatrix type="matrix" values="0 0 0 0 1 0 0 0 0 1 0 0 0 0 1 0 0 0 0.48 0"/>
            <feBlend mode="normal" in2="effect1_innerShadow_889_4977" result="effect2_innerShadow_889_4977"/>
        </filter>
    </defs>
</svg>
